<svg width="1172" height="148" viewBox="0 0 1172 148" fill="none" xmlns="http://www.w3.org/2000/svg">
<g clip-path="url(#clip0_298_5100)">
<path d="M67.7263 29.5256C69.4684 31.2678 70.4471 33.6306 70.4471 36.0943C70.4471 38.5581 69.4684 40.9209 67.7263 42.6631L66.2104 44.1789L67.7263 45.6948C68.1283 46.0968 68.3542 46.6421 68.3542 47.2106C68.3542 47.7792 68.1283 48.3244 67.7263 48.7265C67.3243 49.1285 66.779 49.3544 66.2104 49.3544C65.6419 49.3544 65.0966 49.1285 64.6946 48.7265L63.1787 47.2106L61.6629 48.7265C59.9207 50.4686 57.5579 51.4473 55.0942 51.4473C52.6304 51.4473 50.2676 50.4686 48.5255 48.7265C48.1234 48.3244 47.8976 47.7792 47.8976 47.2106C47.8976 46.6421 48.1234 46.0968 48.5255 45.6948C48.9275 45.2927 49.4728 45.0669 50.0413 45.0669C50.6099 45.0669 51.1551 45.2927 51.5572 45.6948C52.4975 46.6285 53.769 47.1525 55.0942 47.1525C56.4194 47.1525 57.6908 46.6285 58.6312 45.6948L64.6946 39.6313C65.6326 38.6933 66.1597 37.421 66.1597 36.0943C66.1597 34.7677 65.6326 33.4954 64.6946 32.5574C63.7565 31.6193 62.4842 31.0923 61.1576 31.0923C59.831 31.0923 58.5587 31.6193 57.6206 32.5574L52.0625 38.1155C50.3203 39.8576 47.9575 40.8363 45.4937 40.8363C43.03 40.8363 40.6672 39.8576 38.925 38.1155C37.1829 36.3734 36.2042 34.0105 36.2042 31.5468C36.2042 29.083 37.1829 26.7202 38.925 24.9781L39.9356 23.9675L38.4198 22.4516C38.0177 22.0496 37.7919 21.5043 37.7919 20.9358C37.7919 20.3672 38.0177 19.822 38.4198 19.4199C38.8218 19.0179 39.3671 18.7921 39.9356 18.7921C40.5042 18.7921 41.0494 19.0179 41.4515 19.4199L42.9673 20.9358L43.4726 20.4305C45.2147 18.6884 47.5776 17.7097 50.0413 17.7097C52.5051 17.7097 54.8679 18.6884 56.61 20.4305C57.012 20.8325 57.2379 21.3778 57.2379 21.9464C57.2379 22.5149 57.012 23.0602 56.61 23.4622C56.208 23.8642 55.6627 24.0901 55.0942 24.0901C54.5256 24.0901 53.9803 23.8642 53.5783 23.4622C52.6379 22.5285 51.3665 22.0045 50.0413 22.0045C48.7161 22.0045 47.4447 22.5285 46.5043 23.4622L41.9567 28.0098C41.0187 28.9479 40.4917 30.2202 40.4917 31.5468C40.4917 32.8734 41.0187 34.1457 41.9567 35.0838C42.8948 36.0218 44.1671 36.5488 45.4937 36.5488C46.8204 36.5488 48.0927 36.0218 49.0307 35.0838L54.5889 29.5256C56.331 27.7835 58.6938 26.8048 61.1576 26.8048C63.6213 26.8048 65.9842 27.7835 67.7263 29.5256V29.5256Z" fill="#F4FCF9" fill-opacity="0.08"/>
<path d="M244.535 29.5256C246.277 31.2678 247.256 33.6306 247.256 36.0943C247.256 38.5581 246.277 40.9209 244.535 42.6631L243.019 44.1789L244.535 45.6948C244.937 46.0968 245.163 46.6421 245.163 47.2106C245.163 47.7792 244.937 48.3244 244.535 48.7265C244.133 49.1285 243.588 49.3544 243.019 49.3544C242.45 49.3544 241.905 49.1285 241.503 48.7265L239.987 47.2106L238.471 48.7265C236.729 50.4686 234.366 51.4473 231.903 51.4473C229.439 51.4473 227.076 50.4686 225.334 48.7265C224.932 48.3244 224.706 47.7792 224.706 47.2106C224.706 46.6421 224.932 46.0968 225.334 45.6948C225.736 45.2927 226.281 45.0669 226.85 45.0669C227.418 45.0669 227.964 45.2927 228.366 45.6948C229.306 46.6285 230.578 47.1525 231.903 47.1525C233.228 47.1525 234.499 46.6285 235.44 45.6948L241.503 39.6313C242.441 38.6933 242.968 37.421 242.968 36.0943C242.968 34.7677 242.441 33.4954 241.503 32.5574C240.565 31.6193 239.293 31.0923 237.966 31.0923C236.64 31.0923 235.367 31.6193 234.429 32.5574L228.871 38.1155C227.129 39.8576 224.766 40.8363 222.302 40.8363C219.839 40.8363 217.476 39.8576 215.734 38.1155C213.992 36.3734 213.013 34.0105 213.013 31.5468C213.013 29.083 213.992 26.7202 215.734 24.9781L216.744 23.9675L215.228 22.4516C214.826 22.0496 214.6 21.5043 214.6 20.9358C214.6 20.3672 214.826 19.822 215.228 19.4199C215.63 19.0179 216.176 18.7921 216.744 18.7921C217.313 18.7921 217.858 19.0179 218.26 19.4199L219.776 20.9358L220.281 20.4305C222.023 18.6884 224.386 17.7097 226.85 17.7097C229.314 17.7097 231.676 18.6884 233.419 20.4305C233.821 20.8325 234.046 21.3778 234.046 21.9464C234.046 22.5149 233.821 23.0602 233.419 23.4622C233.017 23.8642 232.471 24.0901 231.903 24.0901C231.334 24.0901 230.789 23.8642 230.387 23.4622C229.447 22.5285 228.175 22.0045 226.85 22.0045C225.525 22.0045 224.253 22.5285 223.313 23.4622L218.765 28.0098C217.827 28.9479 217.3 30.2202 217.3 31.5468C217.3 32.8734 217.827 34.1457 218.765 35.0838C219.703 36.0218 220.976 36.5488 222.302 36.5488C223.629 36.5488 224.901 36.0218 225.839 35.0838L231.397 29.5256C233.14 27.7835 235.502 26.8048 237.966 26.8048C240.43 26.8048 242.793 27.7835 244.535 29.5256V29.5256Z" fill="#F4FCF9" fill-opacity="0.08"/>
<path d="M421.344 29.5256C423.087 31.2678 424.065 33.6306 424.065 36.0943C424.065 38.5581 423.087 40.9209 421.344 42.6631L419.829 44.1789L421.344 45.6948C421.746 46.0968 421.972 46.6421 421.972 47.2106C421.972 47.7792 421.746 48.3244 421.344 48.7265C420.942 49.1285 420.397 49.3544 419.829 49.3544C419.26 49.3544 418.715 49.1285 418.313 48.7265L416.797 47.2106L415.281 48.7265C413.539 50.4686 411.176 51.4473 408.712 51.4473C406.249 51.4473 403.886 50.4686 402.144 48.7265C401.742 48.3244 401.516 47.7792 401.516 47.2106C401.516 46.6421 401.742 46.0968 402.144 45.6948C402.546 45.2927 403.091 45.0669 403.659 45.0669C404.228 45.0669 404.773 45.2927 405.175 45.6948C406.116 46.6285 407.387 47.1525 408.712 47.1525C410.038 47.1525 411.309 46.6285 412.249 45.6948L418.313 39.6313C419.251 38.6933 419.778 37.421 419.778 36.0943C419.778 34.7677 419.251 33.4954 418.313 32.5574C417.375 31.6193 416.102 31.0923 414.776 31.0923C413.449 31.0923 412.177 31.6193 411.239 32.5574L405.681 38.1155C403.938 39.8576 401.576 40.8363 399.112 40.8363C396.648 40.8363 394.285 39.8576 392.543 38.1155C390.801 36.3734 389.822 34.0105 389.822 31.5468C389.822 29.083 390.801 26.7202 392.543 24.9781L393.554 23.9675L392.038 22.4516C391.636 22.0496 391.41 21.5043 391.41 20.9358C391.41 20.3672 391.636 19.822 392.038 19.4199C392.44 19.0179 392.985 18.7921 393.554 18.7921C394.122 18.7921 394.668 19.0179 395.07 19.4199L396.585 20.9358L397.091 20.4305C398.833 18.6884 401.196 17.7097 403.659 17.7097C406.123 17.7097 408.486 18.6884 410.228 20.4305C410.63 20.8325 410.856 21.3778 410.856 21.9464C410.856 22.5149 410.63 23.0602 410.228 23.4622C409.826 23.8642 409.281 24.0901 408.712 24.0901C408.144 24.0901 407.599 23.8642 407.196 23.4622C406.256 22.5285 404.985 22.0045 403.659 22.0045C402.334 22.0045 401.063 22.5285 400.122 23.4622L395.575 28.0098C394.637 28.9479 394.11 30.2202 394.11 31.5468C394.11 32.8734 394.637 34.1457 395.575 35.0838C396.513 36.0218 397.785 36.5488 399.112 36.5488C400.439 36.5488 401.711 36.0218 402.649 35.0838L408.207 29.5256C409.949 27.7835 412.312 26.8048 414.776 26.8048C417.239 26.8048 419.602 27.7835 421.344 29.5256V29.5256Z" fill="#F4FCF9" fill-opacity="0.08"/>
<path d="M598.153 29.5256C599.895 31.2678 600.874 33.6306 600.874 36.0943C600.874 38.5581 599.895 40.9209 598.153 42.6631L596.637 44.1789L598.153 45.6948C598.555 46.0968 598.781 46.6421 598.781 47.2106C598.781 47.7792 598.555 48.3244 598.153 48.7265C597.751 49.1285 597.206 49.3544 596.637 49.3544C596.069 49.3544 595.523 49.1285 595.121 48.7265L593.605 47.2106L592.09 48.7265C590.347 50.4686 587.985 51.4473 585.521 51.4473C583.057 51.4473 580.694 50.4686 578.952 48.7265C578.55 48.3244 578.324 47.7792 578.324 47.2106C578.324 46.6421 578.55 46.0968 578.952 45.6948C579.354 45.2927 579.9 45.0669 580.468 45.0669C581.037 45.0669 581.582 45.2927 581.984 45.6948C582.924 46.6285 584.196 47.1525 585.521 47.1525C586.846 47.1525 588.118 46.6285 589.058 45.6948L595.121 39.6313C596.059 38.6933 596.586 37.421 596.586 36.0943C596.586 34.7677 596.059 33.4954 595.121 32.5574C594.183 31.6193 592.911 31.0923 591.584 31.0923C590.258 31.0923 588.985 31.6193 588.047 32.5574L582.489 38.1155C580.747 39.8576 578.384 40.8363 575.921 40.8363C573.457 40.8363 571.094 39.8576 569.352 38.1155C567.61 36.3734 566.631 34.0105 566.631 31.5468C566.631 29.083 567.61 26.7202 569.352 24.9781L570.362 23.9675L568.847 22.4516C568.444 22.0496 568.219 21.5043 568.219 20.9358C568.219 20.3672 568.444 19.822 568.847 19.4199C569.249 19.0179 569.794 18.7921 570.362 18.7921C570.931 18.7921 571.476 19.0179 571.878 19.4199L573.394 20.9358L573.899 20.4305C575.641 18.6884 578.004 17.7097 580.468 17.7097C582.932 17.7097 585.295 18.6884 587.037 20.4305C587.439 20.8325 587.665 21.3778 587.665 21.9464C587.665 22.5149 587.439 23.0602 587.037 23.4622C586.635 23.8642 586.089 24.0901 585.521 24.0901C584.952 24.0901 584.407 23.8642 584.005 23.4622C583.065 22.5285 581.793 22.0045 580.468 22.0045C579.143 22.0045 577.871 22.5285 576.931 23.4622L572.384 28.0098C571.445 28.9479 570.918 30.2202 570.918 31.5468C570.918 32.8734 571.445 34.1457 572.384 35.0838C573.322 36.0218 574.594 36.5488 575.921 36.5488C577.247 36.5488 578.519 36.0218 579.457 35.0838L585.016 29.5256C586.758 27.7835 589.121 26.8048 591.584 26.8048C594.048 26.8048 596.411 27.7835 598.153 29.5256V29.5256Z" fill="#F4FCF9" fill-opacity="0.08"/>
<path d="M774.962 29.5256C776.704 31.2678 777.682 33.6306 777.682 36.0943C777.682 38.5581 776.704 40.9209 774.962 42.6631L773.446 44.1789L774.962 45.6948C775.364 46.0968 775.59 46.6421 775.59 47.2106C775.59 47.7792 775.364 48.3244 774.962 48.7265C774.56 49.1285 774.014 49.3544 773.446 49.3544C772.877 49.3544 772.332 49.1285 771.93 48.7265L770.414 47.2106L768.898 48.7265C767.156 50.4686 764.793 51.4473 762.33 51.4473C759.866 51.4473 757.503 50.4686 755.761 48.7265C755.359 48.3244 755.133 47.7792 755.133 47.2106C755.133 46.6421 755.359 46.0968 755.761 45.6948C756.163 45.2927 756.708 45.0669 757.277 45.0669C757.845 45.0669 758.39 45.2927 758.793 45.6948C759.733 46.6285 761.004 47.1525 762.33 47.1525C763.655 47.1525 764.926 46.6285 765.867 45.6948L771.93 39.6313C772.868 38.6933 773.395 37.421 773.395 36.0943C773.395 34.7677 772.868 33.4954 771.93 32.5574C770.992 31.6193 769.72 31.0923 768.393 31.0923C767.066 31.0923 765.794 31.6193 764.856 32.5574L759.298 38.1155C757.556 39.8576 755.193 40.8363 752.729 40.8363C750.265 40.8363 747.903 39.8576 746.16 38.1155C744.418 36.3734 743.44 34.0105 743.44 31.5468C743.44 29.083 744.418 26.7202 746.16 24.9781L747.171 23.9675L745.655 22.4516C745.253 22.0496 745.027 21.5043 745.027 20.9358C745.027 20.3672 745.253 19.822 745.655 19.4199C746.057 19.0179 746.602 18.7921 747.171 18.7921C747.74 18.7921 748.285 19.0179 748.687 19.4199L750.203 20.9358L750.708 20.4305C752.45 18.6884 754.813 17.7097 757.277 17.7097C759.74 17.7097 762.103 18.6884 763.845 20.4305C764.247 20.8325 764.473 21.3778 764.473 21.9464C764.473 22.5149 764.247 23.0602 763.845 23.4622C763.443 23.8642 762.898 24.0901 762.33 24.0901C761.761 24.0901 761.216 23.8642 760.814 23.4622C759.873 22.5285 758.602 22.0045 757.277 22.0045C755.951 22.0045 754.68 22.5285 753.74 23.4622L749.192 28.0098C748.254 28.9479 747.727 30.2202 747.727 31.5468C747.727 32.8734 748.254 34.1457 749.192 35.0838C750.13 36.0218 751.402 36.5488 752.729 36.5488C754.056 36.5488 755.328 36.0218 756.266 35.0838L761.824 29.5256C763.566 27.7835 765.929 26.8048 768.393 26.8048C770.857 26.8048 773.22 27.7835 774.962 29.5256V29.5256Z" fill="#F4FCF9" fill-opacity="0.08"/>
<path d="M951.771 29.5256C953.513 31.2678 954.492 33.6306 954.492 36.0943C954.492 38.5581 953.513 40.9209 951.771 42.6631L950.255 44.1789L951.771 45.6948C952.173 46.0968 952.399 46.6421 952.399 47.2106C952.399 47.7792 952.173 48.3244 951.771 48.7265C951.369 49.1285 950.824 49.3544 950.255 49.3544C949.687 49.3544 949.142 49.1285 948.74 48.7265L947.224 47.2106L945.708 48.7265C943.966 50.4686 941.603 51.4473 939.139 51.4473C936.675 51.4473 934.313 50.4686 932.57 48.7265C932.168 48.3244 931.942 47.7792 931.942 47.2106C931.942 46.6421 932.168 46.0968 932.57 45.6948C932.972 45.2927 933.518 45.0669 934.086 45.0669C934.655 45.0669 935.2 45.2927 935.602 45.6948C936.542 46.6285 937.814 47.1525 939.139 47.1525C940.464 47.1525 941.736 46.6285 942.676 45.6948L948.74 39.6313C949.678 38.6933 950.205 37.421 950.205 36.0943C950.205 34.7677 949.678 33.4954 948.74 32.5574C947.801 31.6193 946.529 31.0923 945.203 31.0923C943.876 31.0923 942.604 31.6193 941.666 32.5574L936.107 38.1155C934.365 39.8576 932.002 40.8363 929.539 40.8363C927.075 40.8363 924.712 39.8576 922.97 38.1155C921.228 36.3734 920.249 34.0105 920.249 31.5468C920.249 29.083 921.228 26.7202 922.97 24.9781L923.981 23.9675L922.465 22.4516C922.063 22.0496 921.837 21.5043 921.837 20.9358C921.837 20.3672 922.063 19.822 922.465 19.4199C922.867 19.0179 923.412 18.7921 923.981 18.7921C924.549 18.7921 925.094 19.0179 925.496 19.4199L927.012 20.9358L927.518 20.4305C929.26 18.6884 931.622 17.7097 934.086 17.7097C936.55 17.7097 938.913 18.6884 940.655 20.4305C941.057 20.8325 941.283 21.3778 941.283 21.9464C941.283 22.5149 941.057 23.0602 940.655 23.4622C940.253 23.8642 939.708 24.0901 939.139 24.0901C938.571 24.0901 938.025 23.8642 937.623 23.4622C936.683 22.5285 935.411 22.0045 934.086 22.0045C932.761 22.0045 931.49 22.5285 930.549 23.4622L926.002 28.0098C925.064 28.9479 924.537 30.2202 924.537 31.5468C924.537 32.8734 925.064 34.1457 926.002 35.0838C926.94 36.0218 928.212 36.5488 929.539 36.5488C930.865 36.5488 932.138 36.0218 933.076 35.0838L938.634 29.5256C940.376 27.7835 942.739 26.8048 945.203 26.8048C947.666 26.8048 950.029 27.7835 951.771 29.5256V29.5256Z" fill="#F4FCF9" fill-opacity="0.08"/>
<path d="M1128.58 29.5256C1130.32 31.2678 1131.3 33.6306 1131.3 36.0943C1131.3 38.5581 1130.32 40.9209 1128.58 42.6631L1127.06 44.1789L1128.58 45.6948C1128.98 46.0968 1129.21 46.6421 1129.21 47.2106C1129.21 47.7792 1128.98 48.3244 1128.58 48.7265C1128.18 49.1285 1127.63 49.3544 1127.06 49.3544C1126.5 49.3544 1125.95 49.1285 1125.55 48.7265L1124.03 47.2106L1122.52 48.7265C1120.77 50.4686 1118.41 51.4473 1115.95 51.4473C1113.48 51.4473 1111.12 50.4686 1109.38 48.7265C1108.98 48.3244 1108.75 47.7792 1108.75 47.2106C1108.75 46.6421 1108.98 46.0968 1109.38 45.6948C1109.78 45.2927 1110.33 45.0669 1110.89 45.0669C1111.46 45.0669 1112.01 45.2927 1112.41 45.6948C1113.35 46.6285 1114.62 47.1525 1115.95 47.1525C1117.27 47.1525 1118.54 46.6285 1119.48 45.6948L1125.55 39.6313C1126.49 38.6933 1127.01 37.421 1127.01 36.0943C1127.01 34.7677 1126.49 33.4954 1125.55 32.5574C1124.61 31.6193 1123.34 31.0923 1122.01 31.0923C1120.68 31.0923 1119.41 31.6193 1118.47 32.5574L1112.92 38.1155C1111.17 39.8576 1108.81 40.8363 1106.35 40.8363C1103.88 40.8363 1101.52 39.8576 1099.78 38.1155C1098.04 36.3734 1097.06 34.0105 1097.06 31.5468C1097.06 29.083 1098.04 26.7202 1099.78 24.9781L1100.79 23.9675L1099.27 22.4516C1098.87 22.0496 1098.65 21.5043 1098.65 20.9358C1098.65 20.3672 1098.87 19.822 1099.27 19.4199C1099.68 19.0179 1100.22 18.7921 1100.79 18.7921C1101.36 18.7921 1101.9 19.0179 1102.3 19.4199L1103.82 20.9358L1104.33 20.4305C1106.07 18.6884 1108.43 17.7097 1110.89 17.7097C1113.36 17.7097 1115.72 18.6884 1117.46 20.4305C1117.87 20.8325 1118.09 21.3778 1118.09 21.9464C1118.09 22.5149 1117.87 23.0602 1117.46 23.4622C1117.06 23.8642 1116.52 24.0901 1115.95 24.0901C1115.38 24.0901 1114.83 23.8642 1114.43 23.4622C1113.49 22.5285 1112.22 22.0045 1110.89 22.0045C1109.57 22.0045 1108.3 22.5285 1107.36 23.4622L1102.81 28.0098C1101.87 28.9479 1101.35 30.2202 1101.35 31.5468C1101.35 32.8734 1101.87 34.1457 1102.81 35.0838C1103.75 36.0218 1105.02 36.5488 1106.35 36.5488C1107.67 36.5488 1108.95 36.0218 1109.88 35.0838L1115.44 29.5256C1117.18 27.7835 1119.55 26.8048 1122.01 26.8048C1124.47 26.8048 1126.84 27.7835 1128.58 29.5256V29.5256Z" fill="#F4FCF9" fill-opacity="0.08"/>
<path d="M146.621 89.7265C144.879 91.4686 142.516 92.4473 140.052 92.4473C137.588 92.4473 135.225 91.4686 133.483 89.7265L131.967 88.2106L130.452 89.7265C130.05 90.1285 129.504 90.3544 128.936 90.3544C128.367 90.3544 127.822 90.1285 127.42 89.7265C127.018 89.3244 126.792 88.7792 126.792 88.2106C126.792 87.6421 127.018 87.0968 127.42 86.6948L128.936 85.1789L127.42 83.6631C125.678 81.9209 124.699 79.5581 124.699 77.0943C124.699 74.6306 125.678 72.2678 127.42 70.5256C127.822 70.1236 128.367 69.8978 128.936 69.8978C129.504 69.8978 130.05 70.1236 130.452 70.5256C130.854 70.9277 131.079 71.4729 131.079 72.0415C131.079 72.6101 130.854 73.1553 130.452 73.5573C129.518 74.4977 128.994 75.7692 128.994 77.0943C128.994 78.4195 129.518 79.691 130.452 80.6313L136.515 86.6948C137.453 87.6328 138.725 88.1598 140.052 88.1598C141.379 88.1598 142.651 87.6328 143.589 86.6948C144.527 85.7567 145.054 84.4844 145.054 83.1578C145.054 81.8311 144.527 80.5588 143.589 79.6208L138.031 74.0626C136.289 72.3205 135.31 69.9577 135.31 67.4939C135.31 65.0302 136.289 62.6674 138.031 60.9252C139.773 59.1831 142.136 58.2044 144.6 58.2044C147.063 58.2044 149.426 59.1831 151.168 60.9252L152.179 61.9358L153.695 60.4199C154.097 60.0179 154.642 59.792 155.211 59.792C155.779 59.792 156.324 60.0179 156.726 60.4199C157.128 60.822 157.354 61.3672 157.354 61.9358C157.354 62.5043 157.128 63.0496 156.726 63.4516L155.211 64.9675L155.716 65.4728C157.458 67.2149 158.437 69.5777 158.437 72.0415C158.437 74.5052 157.458 76.8681 155.716 78.6102C155.314 79.0122 154.769 79.2381 154.2 79.2381C153.631 79.2381 153.086 79.0122 152.684 78.6102C152.282 78.2082 152.056 77.6629 152.056 77.0943C152.056 76.5258 152.282 75.9805 152.684 75.5785C153.618 74.6381 154.142 73.3667 154.142 72.0415C154.142 70.7163 153.618 69.4449 152.684 68.5045L148.137 63.9569C147.198 63.0189 145.926 62.4919 144.6 62.4919C143.273 62.4919 142.001 63.0189 141.063 63.9569C140.124 64.895 139.597 66.1673 139.597 67.4939C139.597 68.8206 140.124 70.0929 141.063 71.0309L146.621 76.5891C148.363 78.3312 149.342 80.694 149.342 83.1578C149.342 85.6215 148.363 87.9843 146.621 89.7265V89.7265Z" fill="#F4FCF9" fill-opacity="0.08"/>
<path d="M323.429 89.7265C321.687 91.4686 319.324 92.4473 316.861 92.4473C314.397 92.4473 312.034 91.4686 310.292 89.7265L308.776 88.2106L307.26 89.7265C306.858 90.1285 306.313 90.3544 305.744 90.3544C305.176 90.3544 304.63 90.1285 304.228 89.7265C303.826 89.3244 303.601 88.7792 303.601 88.2106C303.601 87.6421 303.826 87.0968 304.228 86.6948L305.744 85.1789L304.228 83.6631C302.486 81.9209 301.508 79.5581 301.508 77.0943C301.508 74.6306 302.486 72.2678 304.228 70.5256C304.63 70.1236 305.176 69.8978 305.744 69.8978C306.313 69.8978 306.858 70.1236 307.26 70.5256C307.662 70.9277 307.888 71.4729 307.888 72.0415C307.888 72.6101 307.662 73.1553 307.26 73.5573C306.326 74.4977 305.802 75.7692 305.802 77.0943C305.802 78.4195 306.326 79.691 307.26 80.6313L313.324 86.6948C314.262 87.6328 315.534 88.1598 316.861 88.1598C318.187 88.1598 319.46 87.6328 320.398 86.6948C321.336 85.7567 321.863 84.4844 321.863 83.1578C321.863 81.8311 321.336 80.5588 320.398 79.6208L314.839 74.0626C313.097 72.3205 312.119 69.9577 312.119 67.4939C312.119 65.0302 313.097 62.6674 314.839 60.9252C316.582 59.1831 318.944 58.2044 321.408 58.2044C323.872 58.2044 326.235 59.1831 327.977 60.9252L328.987 61.9358L330.503 60.4199C330.905 60.0179 331.451 59.792 332.019 59.792C332.588 59.792 333.133 60.0179 333.535 60.4199C333.937 60.822 334.163 61.3672 334.163 61.9358C334.163 62.5043 333.937 63.0496 333.535 63.4516L332.019 64.9675L332.524 65.4728C334.267 67.2149 335.245 69.5777 335.245 72.0415C335.245 74.5052 334.267 76.8681 332.524 78.6102C332.122 79.0122 331.577 79.2381 331.009 79.2381C330.44 79.2381 329.895 79.0122 329.493 78.6102C329.091 78.2082 328.865 77.6629 328.865 77.0943C328.865 76.5258 329.091 75.9805 329.493 75.5785C330.426 74.6381 330.95 73.3667 330.95 72.0415C330.95 70.7163 330.426 69.4449 329.493 68.5045L324.945 63.9569C324.007 63.0189 322.735 62.4919 321.408 62.4919C320.082 62.4919 318.809 63.0189 317.871 63.9569C316.933 64.895 316.406 66.1673 316.406 67.4939C316.406 68.8206 316.933 70.0929 317.871 71.0309L323.429 76.5891C325.171 78.3312 326.15 80.694 326.15 83.1578C326.15 85.6215 325.171 87.9843 323.429 89.7265V89.7265Z" fill="#F4FCF9" fill-opacity="0.08"/>
<path d="M500.238 89.7265C498.496 91.4686 496.133 92.4473 493.669 92.4473C491.205 92.4473 488.843 91.4686 487.1 89.7265L485.585 88.2106L484.069 89.7265C483.667 90.1285 483.121 90.3544 482.553 90.3544C481.984 90.3544 481.439 90.1285 481.037 89.7265C480.635 89.3244 480.409 88.7792 480.409 88.2106C480.409 87.6421 480.635 87.0968 481.037 86.6948L482.553 85.1789L481.037 83.6631C479.295 81.9209 478.316 79.5581 478.316 77.0943C478.316 74.6306 479.295 72.2678 481.037 70.5256C481.439 70.1236 481.984 69.8978 482.553 69.8978C483.121 69.8978 483.667 70.1236 484.069 70.5256C484.471 70.9277 484.697 71.4729 484.697 72.0415C484.697 72.6101 484.471 73.1553 484.069 73.5573C483.135 74.4977 482.611 75.7692 482.611 77.0943C482.611 78.4195 483.135 79.691 484.069 80.6313L490.132 86.6948C491.07 87.6328 492.343 88.1598 493.669 88.1598C494.996 88.1598 496.268 87.6328 497.206 86.6948C498.144 85.7567 498.671 84.4844 498.671 83.1578C498.671 81.8311 498.144 80.5588 497.206 79.6208L491.648 74.0626C489.906 72.3205 488.927 69.9577 488.927 67.4939C488.927 65.0302 489.906 62.6674 491.648 60.9252C493.39 59.1831 495.753 58.2044 498.217 58.2044C500.68 58.2044 503.043 59.1831 504.785 60.9252L505.796 61.9358L507.312 60.4199C507.714 60.0179 508.259 59.792 508.828 59.792C509.396 59.792 509.942 60.0179 510.344 60.4199C510.746 60.822 510.971 61.3672 510.971 61.9358C510.971 62.5043 510.746 63.0496 510.344 63.4516L508.828 64.9675L509.333 65.4728C511.075 67.2149 512.054 69.5777 512.054 72.0415C512.054 74.5052 511.075 76.8681 509.333 78.6102C508.931 79.0122 508.386 79.2381 507.817 79.2381C507.249 79.2381 506.703 79.0122 506.301 78.6102C505.899 78.2082 505.673 77.6629 505.673 77.0943C505.673 76.5258 505.899 75.9805 506.301 75.5785C507.235 74.6381 507.759 73.3667 507.759 72.0415C507.759 70.7163 507.235 69.4449 506.301 68.5045L501.754 63.9569C500.816 63.0189 499.543 62.4919 498.217 62.4919C496.89 62.4919 495.618 63.0189 494.68 63.9569C493.742 64.895 493.215 66.1673 493.215 67.4939C493.215 68.8206 493.742 70.0929 494.68 71.0309L500.238 76.5891C501.98 78.3312 502.959 80.694 502.959 83.1578C502.959 85.6215 501.98 87.9843 500.238 89.7265V89.7265Z" fill="#F4FCF9" fill-opacity="0.08"/>
<path d="M677.047 89.7265C675.305 91.4686 672.942 92.4473 670.479 92.4473C668.015 92.4473 665.652 91.4686 663.91 89.7265L662.394 88.2106L660.878 89.7265C660.476 90.1285 659.931 90.3544 659.362 90.3544C658.794 90.3544 658.249 90.1285 657.847 89.7265C657.445 89.3244 657.219 88.7792 657.219 88.2106C657.219 87.6421 657.445 87.0968 657.847 86.6948L659.362 85.1789L657.847 83.6631C656.104 81.9209 655.126 79.5581 655.126 77.0943C655.126 74.6306 656.104 72.2678 657.847 70.5256C658.249 70.1236 658.794 69.8978 659.362 69.8978C659.931 69.8978 660.476 70.1236 660.878 70.5256C661.28 70.9277 661.506 71.4729 661.506 72.0415C661.506 72.6101 661.28 73.1553 660.878 73.5573C659.945 74.4977 659.421 75.7692 659.421 77.0943C659.421 78.4195 659.945 79.691 660.878 80.6313L666.942 86.6948C667.88 87.6328 669.152 88.1598 670.479 88.1598C671.805 88.1598 673.078 87.6328 674.016 86.6948C674.954 85.7567 675.481 84.4844 675.481 83.1578C675.481 81.8311 674.954 80.5588 674.016 79.6208L668.458 74.0626C666.715 72.3205 665.737 69.9577 665.737 67.4939C665.737 65.0302 666.715 62.6674 668.458 60.9252C670.2 59.1831 672.563 58.2044 675.026 58.2044C677.49 58.2044 679.853 59.1831 681.595 60.9252L682.606 61.9358L684.121 60.4199C684.523 60.0179 685.069 59.792 685.637 59.792C686.206 59.792 686.751 60.0179 687.153 60.4199C687.555 60.822 687.781 61.3672 687.781 61.9358C687.781 62.5043 687.555 63.0496 687.153 63.4516L685.637 64.9675L686.143 65.4728C687.885 67.2149 688.863 69.5777 688.863 72.0415C688.863 74.5052 687.885 76.8681 686.143 78.6102C685.741 79.0122 685.195 79.2381 684.627 79.2381C684.058 79.2381 683.513 79.0122 683.111 78.6102C682.709 78.2082 682.483 77.6629 682.483 77.0943C682.483 76.5258 682.709 75.9805 683.111 75.5785C684.045 74.6381 684.569 73.3667 684.569 72.0415C684.569 70.7163 684.045 69.4449 683.111 68.5045L678.563 63.9569C677.625 63.0189 676.353 62.4919 675.026 62.4919C673.7 62.4919 672.427 63.0189 671.489 63.9569C670.551 64.895 670.024 66.1673 670.024 67.4939C670.024 68.8206 670.551 70.0929 671.489 71.0309L677.047 76.5891C678.79 78.3312 679.768 80.694 679.768 83.1578C679.768 85.6215 678.79 87.9843 677.047 89.7265V89.7265Z" fill="#F4FCF9" fill-opacity="0.08"/>
<path d="M853.856 89.7265C852.114 91.4686 849.751 92.4473 847.287 92.4473C844.824 92.4473 842.461 91.4686 840.719 89.7265L839.203 88.2106L837.687 89.7265C837.285 90.1285 836.74 90.3544 836.171 90.3544C835.603 90.3544 835.057 90.1285 834.655 89.7265C834.253 89.3244 834.027 88.7792 834.027 88.2106C834.027 87.6421 834.253 87.0968 834.655 86.6948L836.171 85.1789L834.655 83.6631C832.913 81.9209 831.934 79.5581 831.934 77.0943C831.934 74.6306 832.913 72.2678 834.655 70.5256C835.057 70.1236 835.603 69.8978 836.171 69.8978C836.74 69.8978 837.285 70.1236 837.687 70.5256C838.089 70.9277 838.315 71.4729 838.315 72.0415C838.315 72.6101 838.089 73.1553 837.687 73.5573C836.753 74.4977 836.229 75.7692 836.229 77.0943C836.229 78.4195 836.753 79.691 837.687 80.6313L843.75 86.6948C844.688 87.6328 845.961 88.1598 847.287 88.1598C848.614 88.1598 849.886 87.6328 850.824 86.6948C851.762 85.7567 852.289 84.4844 852.289 83.1578C852.289 81.8311 851.762 80.5588 850.824 79.6208L845.266 74.0626C843.524 72.3205 842.545 69.9577 842.545 67.4939C842.545 65.0302 843.524 62.6674 845.266 60.9252C847.008 59.1831 849.371 58.2044 851.835 58.2044C854.299 58.2044 856.661 59.1831 858.404 60.9252L859.414 61.9358L860.93 60.4199C861.332 60.0179 861.877 59.792 862.446 59.792C863.014 59.792 863.56 60.0179 863.962 60.4199C864.364 60.822 864.59 61.3672 864.59 61.9358C864.59 62.5043 864.364 63.0496 863.962 63.4516L862.446 64.9675L862.951 65.4728C864.693 67.2149 865.672 69.5777 865.672 72.0415C865.672 74.5052 864.693 76.8681 862.951 78.6102C862.549 79.0122 862.004 79.2381 861.435 79.2381C860.867 79.2381 860.321 79.0122 859.919 78.6102C859.517 78.2082 859.292 77.6629 859.292 77.0943C859.292 76.5258 859.517 75.9805 859.919 75.5785C860.853 74.6381 861.377 73.3667 861.377 72.0415C861.377 70.7163 860.853 69.4449 859.919 68.5045L855.372 63.9569C854.434 63.0189 853.162 62.4919 851.835 62.4919C850.508 62.4919 849.236 63.0189 848.298 63.9569C847.36 64.895 846.833 66.1673 846.833 67.4939C846.833 68.8206 847.36 70.0929 848.298 71.0309L853.856 76.5891C855.598 78.3312 856.577 80.694 856.577 83.1578C856.577 85.6215 855.598 87.9843 853.856 89.7265V89.7265Z" fill="#F4FCF9" fill-opacity="0.08"/>
<path d="M1030.66 89.7265C1028.92 91.4686 1026.56 92.4473 1024.1 92.4473C1021.63 92.4473 1019.27 91.4686 1017.53 89.7265L1016.01 88.2106L1014.5 89.7265C1014.09 90.1285 1013.55 90.3544 1012.98 90.3544C1012.41 90.3544 1011.87 90.1285 1011.46 89.7265C1011.06 89.3244 1010.84 88.7792 1010.84 88.2106C1010.84 87.6421 1011.06 87.0968 1011.46 86.6948L1012.98 85.1789L1011.46 83.6631C1009.72 81.9209 1008.74 79.5581 1008.74 77.0943C1008.74 74.6306 1009.72 72.2678 1011.46 70.5256C1011.87 70.1236 1012.41 69.8978 1012.98 69.8978C1013.55 69.8978 1014.09 70.1236 1014.5 70.5256C1014.9 70.9277 1015.12 71.4729 1015.12 72.0415C1015.12 72.6101 1014.9 73.1553 1014.5 73.5573C1013.56 74.4977 1013.04 75.7692 1013.04 77.0943C1013.04 78.4195 1013.56 79.691 1014.5 80.6313L1020.56 86.6948C1021.5 87.6328 1022.77 88.1598 1024.1 88.1598C1025.42 88.1598 1026.69 87.6328 1027.63 86.6948C1028.57 85.7567 1029.1 84.4844 1029.1 83.1578C1029.1 81.8311 1028.57 80.5588 1027.63 79.6208L1022.07 74.0626C1020.33 72.3205 1019.35 69.9577 1019.35 67.4939C1019.35 65.0302 1020.33 62.6674 1022.07 60.9252C1023.82 59.1831 1026.18 58.2044 1028.64 58.2044C1031.11 58.2044 1033.47 59.1831 1035.21 60.9252L1036.22 61.9358L1037.74 60.4199C1038.14 60.0179 1038.69 59.792 1039.25 59.792C1039.82 59.792 1040.37 60.0179 1040.77 60.4199C1041.17 60.822 1041.4 61.3672 1041.4 61.9358C1041.4 62.5043 1041.17 63.0496 1040.77 63.4516L1039.25 64.9675L1039.76 65.4728C1041.5 67.2149 1042.48 69.5777 1042.48 72.0415C1042.48 74.5052 1041.5 76.8681 1039.76 78.6102C1039.36 79.0122 1038.81 79.2381 1038.24 79.2381C1037.68 79.2381 1037.13 79.0122 1036.73 78.6102C1036.33 78.2082 1036.1 77.6629 1036.1 77.0943C1036.1 76.5258 1036.33 75.9805 1036.73 75.5785C1037.66 74.6381 1038.19 73.3667 1038.19 72.0415C1038.19 70.7163 1037.66 69.4449 1036.73 68.5045L1032.18 63.9569C1031.24 63.0189 1029.97 62.4919 1028.64 62.4919C1027.32 62.4919 1026.04 63.0189 1025.11 63.9569C1024.17 64.895 1023.64 66.1673 1023.64 67.4939C1023.64 68.8206 1024.17 70.0929 1025.11 71.0309L1030.66 76.5891C1032.41 78.3312 1033.39 80.694 1033.39 83.1578C1033.39 85.6215 1032.41 87.9843 1030.66 89.7265V89.7265Z" fill="#F4FCF9" fill-opacity="0.08"/>
<path d="M65.7263 109.526C67.4684 111.268 68.4471 113.631 68.4471 116.094C68.4471 118.558 67.4684 120.921 65.7263 122.663L64.2104 124.179L65.7263 125.695C66.1283 126.097 66.3542 126.642 66.3542 127.211C66.3542 127.779 66.1283 128.324 65.7263 128.726C65.3243 129.129 64.779 129.354 64.2104 129.354C63.6419 129.354 63.0966 129.129 62.6946 128.726L61.1787 127.211L59.6629 128.726C57.9207 130.469 55.5579 131.447 53.0942 131.447C50.6304 131.447 48.2676 130.469 46.5255 128.726C46.1234 128.324 45.8976 127.779 45.8976 127.211C45.8976 126.642 46.1234 126.097 46.5255 125.695C46.9275 125.293 47.4728 125.067 48.0413 125.067C48.6099 125.067 49.1551 125.293 49.5572 125.695C50.4975 126.628 51.769 127.152 53.0942 127.152C54.4194 127.152 55.6908 126.628 56.6312 125.695L62.6946 119.631C63.6326 118.693 64.1597 117.421 64.1597 116.094C64.1597 114.768 63.6326 113.495 62.6946 112.557C61.7565 111.619 60.4842 111.092 59.1576 111.092C57.831 111.092 56.5587 111.619 55.6206 112.557L50.0625 118.115C48.3203 119.858 45.9575 120.836 43.4937 120.836C41.03 120.836 38.6672 119.858 36.925 118.115C35.1829 116.373 34.2042 114.011 34.2042 111.547C34.2042 109.083 35.1829 106.72 36.925 104.978L37.9356 103.968L36.4198 102.452C36.0177 102.05 35.7919 101.504 35.7919 100.936C35.7919 100.367 36.0177 99.822 36.4198 99.4199C36.8218 99.0179 37.3671 98.7921 37.9356 98.7921C38.5042 98.7921 39.0494 99.0179 39.4515 99.4199L40.9673 100.936L41.4726 100.431C43.2147 98.6884 45.5776 97.7097 48.0413 97.7097C50.5051 97.7097 52.8679 98.6884 54.61 100.431C55.012 100.833 55.2379 101.378 55.2379 101.946C55.2379 102.515 55.012 103.06 54.61 103.462C54.208 103.864 53.6627 104.09 53.0942 104.09C52.5256 104.09 51.9803 103.864 51.5783 103.462C50.6379 102.529 49.3665 102.005 48.0413 102.005C46.7161 102.005 45.4447 102.529 44.5043 103.462L39.9567 108.01C39.0187 108.948 38.4917 110.22 38.4917 111.547C38.4917 112.873 39.0187 114.146 39.9567 115.084C40.8948 116.022 42.1671 116.549 43.4937 116.549C44.8204 116.549 46.0927 116.022 47.0307 115.084L52.5889 109.526C54.331 107.784 56.6938 106.805 59.1576 106.805C61.6213 106.805 63.9842 107.784 65.7263 109.526V109.526Z" fill="#F4FCF9" fill-opacity="0.08"/>
<path d="M242.535 109.526C244.277 111.268 245.256 113.631 245.256 116.094C245.256 118.558 244.277 120.921 242.535 122.663L241.019 124.179L242.535 125.695C242.937 126.097 243.163 126.642 243.163 127.211C243.163 127.779 242.937 128.324 242.535 128.726C242.133 129.129 241.588 129.354 241.019 129.354C240.45 129.354 239.905 129.129 239.503 128.726L237.987 127.211L236.471 128.726C234.729 130.469 232.366 131.447 229.903 131.447C227.439 131.447 225.076 130.469 223.334 128.726C222.932 128.324 222.706 127.779 222.706 127.211C222.706 126.642 222.932 126.097 223.334 125.695C223.736 125.293 224.281 125.067 224.85 125.067C225.418 125.067 225.964 125.293 226.366 125.695C227.306 126.628 228.578 127.152 229.903 127.152C231.228 127.152 232.499 126.628 233.44 125.695L239.503 119.631C240.441 118.693 240.968 117.421 240.968 116.094C240.968 114.768 240.441 113.495 239.503 112.557C238.565 111.619 237.293 111.092 235.966 111.092C234.64 111.092 233.367 111.619 232.429 112.557L226.871 118.115C225.129 119.858 222.766 120.836 220.302 120.836C217.839 120.836 215.476 119.858 213.734 118.115C211.992 116.373 211.013 114.011 211.013 111.547C211.013 109.083 211.992 106.72 213.734 104.978L214.744 103.968L213.228 102.452C212.826 102.05 212.6 101.504 212.6 100.936C212.6 100.367 212.826 99.822 213.228 99.4199C213.63 99.0179 214.176 98.7921 214.744 98.7921C215.313 98.7921 215.858 99.0179 216.26 99.4199L217.776 100.936L218.281 100.431C220.023 98.6884 222.386 97.7097 224.85 97.7097C227.314 97.7097 229.676 98.6884 231.419 100.431C231.821 100.833 232.046 101.378 232.046 101.946C232.046 102.515 231.821 103.06 231.419 103.462C231.017 103.864 230.471 104.09 229.903 104.09C229.334 104.09 228.789 103.864 228.387 103.462C227.447 102.529 226.175 102.005 224.85 102.005C223.525 102.005 222.253 102.529 221.313 103.462L216.765 108.01C215.827 108.948 215.3 110.22 215.3 111.547C215.3 112.873 215.827 114.146 216.765 115.084C217.703 116.022 218.976 116.549 220.302 116.549C221.629 116.549 222.901 116.022 223.839 115.084L229.397 109.526C231.14 107.784 233.502 106.805 235.966 106.805C238.43 106.805 240.793 107.784 242.535 109.526V109.526Z" fill="#F4FCF9" fill-opacity="0.08"/>
<path d="M419.344 109.526C421.087 111.268 422.065 113.631 422.065 116.094C422.065 118.558 421.087 120.921 419.344 122.663L417.829 124.179L419.344 125.695C419.746 126.097 419.972 126.642 419.972 127.211C419.972 127.779 419.746 128.324 419.344 128.726C418.942 129.129 418.397 129.354 417.829 129.354C417.26 129.354 416.715 129.129 416.313 128.726L414.797 127.211L413.281 128.726C411.539 130.469 409.176 131.447 406.712 131.447C404.249 131.447 401.886 130.469 400.144 128.726C399.742 128.324 399.516 127.779 399.516 127.211C399.516 126.642 399.742 126.097 400.144 125.695C400.546 125.293 401.091 125.067 401.659 125.067C402.228 125.067 402.773 125.293 403.175 125.695C404.116 126.628 405.387 127.152 406.712 127.152C408.038 127.152 409.309 126.628 410.249 125.695L416.313 119.631C417.251 118.693 417.778 117.421 417.778 116.094C417.778 114.768 417.251 113.495 416.313 112.557C415.375 111.619 414.102 111.092 412.776 111.092C411.449 111.092 410.177 111.619 409.239 112.557L403.681 118.115C401.938 119.858 399.576 120.836 397.112 120.836C394.648 120.836 392.285 119.858 390.543 118.115C388.801 116.373 387.822 114.011 387.822 111.547C387.822 109.083 388.801 106.72 390.543 104.978L391.554 103.968L390.038 102.452C389.636 102.05 389.41 101.504 389.41 100.936C389.41 100.367 389.636 99.822 390.038 99.4199C390.44 99.0179 390.985 98.7921 391.554 98.7921C392.122 98.7921 392.668 99.0179 393.07 99.4199L394.585 100.936L395.091 100.431C396.833 98.6884 399.196 97.7097 401.659 97.7097C404.123 97.7097 406.486 98.6884 408.228 100.431C408.63 100.833 408.856 101.378 408.856 101.946C408.856 102.515 408.63 103.06 408.228 103.462C407.826 103.864 407.281 104.09 406.712 104.09C406.144 104.09 405.599 103.864 405.196 103.462C404.256 102.529 402.985 102.005 401.659 102.005C400.334 102.005 399.063 102.529 398.122 103.462L393.575 108.01C392.637 108.948 392.11 110.22 392.11 111.547C392.11 112.873 392.637 114.146 393.575 115.084C394.513 116.022 395.785 116.549 397.112 116.549C398.439 116.549 399.711 116.022 400.649 115.084L406.207 109.526C407.949 107.784 410.312 106.805 412.776 106.805C415.239 106.805 417.602 107.784 419.344 109.526V109.526Z" fill="#F4FCF9" fill-opacity="0.08"/>
<path d="M596.153 109.526C597.895 111.268 598.874 113.631 598.874 116.094C598.874 118.558 597.895 120.921 596.153 122.663L594.637 124.179L596.153 125.695C596.555 126.097 596.781 126.642 596.781 127.211C596.781 127.779 596.555 128.324 596.153 128.726C595.751 129.129 595.206 129.354 594.637 129.354C594.069 129.354 593.523 129.129 593.121 128.726L591.605 127.211L590.09 128.726C588.347 130.469 585.985 131.447 583.521 131.447C581.057 131.447 578.694 130.469 576.952 128.726C576.55 128.324 576.324 127.779 576.324 127.211C576.324 126.642 576.55 126.097 576.952 125.695C577.354 125.293 577.9 125.067 578.468 125.067C579.037 125.067 579.582 125.293 579.984 125.695C580.924 126.628 582.196 127.152 583.521 127.152C584.846 127.152 586.118 126.628 587.058 125.695L593.121 119.631C594.059 118.693 594.586 117.421 594.586 116.094C594.586 114.768 594.059 113.495 593.121 112.557C592.183 111.619 590.911 111.092 589.584 111.092C588.258 111.092 586.985 111.619 586.047 112.557L580.489 118.115C578.747 119.858 576.384 120.836 573.921 120.836C571.457 120.836 569.094 119.858 567.352 118.115C565.61 116.373 564.631 114.011 564.631 111.547C564.631 109.083 565.61 106.72 567.352 104.978L568.362 103.968L566.847 102.452C566.444 102.05 566.219 101.504 566.219 100.936C566.219 100.367 566.444 99.822 566.847 99.4199C567.249 99.0179 567.794 98.7921 568.362 98.7921C568.931 98.7921 569.476 99.0179 569.878 99.4199L571.394 100.936L571.899 100.431C573.641 98.6884 576.004 97.7097 578.468 97.7097C580.932 97.7097 583.295 98.6884 585.037 100.431C585.439 100.833 585.665 101.378 585.665 101.946C585.665 102.515 585.439 103.06 585.037 103.462C584.635 103.864 584.089 104.09 583.521 104.09C582.952 104.09 582.407 103.864 582.005 103.462C581.065 102.529 579.793 102.005 578.468 102.005C577.143 102.005 575.871 102.529 574.931 103.462L570.384 108.01C569.445 108.948 568.918 110.22 568.918 111.547C568.918 112.873 569.445 114.146 570.384 115.084C571.322 116.022 572.594 116.549 573.921 116.549C575.247 116.549 576.519 116.022 577.457 115.084L583.016 109.526C584.758 107.784 587.121 106.805 589.584 106.805C592.048 106.805 594.411 107.784 596.153 109.526V109.526Z" fill="#F4FCF9" fill-opacity="0.08"/>
<path d="M772.962 109.526C774.704 111.268 775.682 113.631 775.682 116.094C775.682 118.558 774.704 120.921 772.962 122.663L771.446 124.179L772.962 125.695C773.364 126.097 773.59 126.642 773.59 127.211C773.59 127.779 773.364 128.324 772.962 128.726C772.56 129.129 772.014 129.354 771.446 129.354C770.877 129.354 770.332 129.129 769.93 128.726L768.414 127.211L766.898 128.726C765.156 130.469 762.793 131.447 760.33 131.447C757.866 131.447 755.503 130.469 753.761 128.726C753.359 128.324 753.133 127.779 753.133 127.211C753.133 126.642 753.359 126.097 753.761 125.695C754.163 125.293 754.708 125.067 755.277 125.067C755.845 125.067 756.39 125.293 756.793 125.695C757.733 126.628 759.004 127.152 760.33 127.152C761.655 127.152 762.926 126.628 763.867 125.695L769.93 119.631C770.868 118.693 771.395 117.421 771.395 116.094C771.395 114.768 770.868 113.495 769.93 112.557C768.992 111.619 767.72 111.092 766.393 111.092C765.066 111.092 763.794 111.619 762.856 112.557L757.298 118.115C755.556 119.858 753.193 120.836 750.729 120.836C748.265 120.836 745.903 119.858 744.16 118.115C742.418 116.373 741.44 114.011 741.44 111.547C741.44 109.083 742.418 106.72 744.16 104.978L745.171 103.968L743.655 102.452C743.253 102.05 743.027 101.504 743.027 100.936C743.027 100.367 743.253 99.822 743.655 99.4199C744.057 99.0179 744.602 98.7921 745.171 98.7921C745.74 98.7921 746.285 99.0179 746.687 99.4199L748.203 100.936L748.708 100.431C750.45 98.6884 752.813 97.7097 755.277 97.7097C757.74 97.7097 760.103 98.6884 761.845 100.431C762.247 100.833 762.473 101.378 762.473 101.946C762.473 102.515 762.247 103.06 761.845 103.462C761.443 103.864 760.898 104.09 760.33 104.09C759.761 104.09 759.216 103.864 758.814 103.462C757.873 102.529 756.602 102.005 755.277 102.005C753.951 102.005 752.68 102.529 751.74 103.462L747.192 108.01C746.254 108.948 745.727 110.22 745.727 111.547C745.727 112.873 746.254 114.146 747.192 115.084C748.13 116.022 749.402 116.549 750.729 116.549C752.056 116.549 753.328 116.022 754.266 115.084L759.824 109.526C761.566 107.784 763.929 106.805 766.393 106.805C768.857 106.805 771.22 107.784 772.962 109.526V109.526Z" fill="#F4FCF9" fill-opacity="0.08"/>
<path d="M949.771 109.526C951.513 111.268 952.492 113.631 952.492 116.094C952.492 118.558 951.513 120.921 949.771 122.663L948.255 124.179L949.771 125.695C950.173 126.097 950.399 126.642 950.399 127.211C950.399 127.779 950.173 128.324 949.771 128.726C949.369 129.129 948.824 129.354 948.255 129.354C947.687 129.354 947.142 129.129 946.74 128.726L945.224 127.211L943.708 128.726C941.966 130.469 939.603 131.447 937.139 131.447C934.675 131.447 932.313 130.469 930.57 128.726C930.168 128.324 929.942 127.779 929.942 127.211C929.942 126.642 930.168 126.097 930.57 125.695C930.972 125.293 931.518 125.067 932.086 125.067C932.655 125.067 933.2 125.293 933.602 125.695C934.542 126.628 935.814 127.152 937.139 127.152C938.464 127.152 939.736 126.628 940.676 125.695L946.74 119.631C947.678 118.693 948.205 117.421 948.205 116.094C948.205 114.768 947.678 113.495 946.74 112.557C945.801 111.619 944.529 111.092 943.203 111.092C941.876 111.092 940.604 111.619 939.666 112.557L934.107 118.115C932.365 119.858 930.002 120.836 927.539 120.836C925.075 120.836 922.712 119.858 920.97 118.115C919.228 116.373 918.249 114.011 918.249 111.547C918.249 109.083 919.228 106.72 920.97 104.978L921.981 103.968L920.465 102.452C920.063 102.05 919.837 101.504 919.837 100.936C919.837 100.367 920.063 99.822 920.465 99.4199C920.867 99.0179 921.412 98.7921 921.981 98.7921C922.549 98.7921 923.094 99.0179 923.496 99.4199L925.012 100.936L925.518 100.431C927.26 98.6884 929.622 97.7097 932.086 97.7097C934.55 97.7097 936.913 98.6884 938.655 100.431C939.057 100.833 939.283 101.378 939.283 101.946C939.283 102.515 939.057 103.06 938.655 103.462C938.253 103.864 937.708 104.09 937.139 104.09C936.571 104.09 936.025 103.864 935.623 103.462C934.683 102.529 933.411 102.005 932.086 102.005C930.761 102.005 929.49 102.529 928.549 103.462L924.002 108.01C923.064 108.948 922.537 110.22 922.537 111.547C922.537 112.873 923.064 114.146 924.002 115.084C924.94 116.022 926.212 116.549 927.539 116.549C928.865 116.549 930.138 116.022 931.076 115.084L936.634 109.526C938.376 107.784 940.739 106.805 943.203 106.805C945.666 106.805 948.029 107.784 949.771 109.526V109.526Z" fill="#F4FCF9" fill-opacity="0.08"/>
<path d="M1126.58 109.526C1128.32 111.268 1129.3 113.631 1129.3 116.094C1129.3 118.558 1128.32 120.921 1126.58 122.663L1125.06 124.179L1126.58 125.695C1126.98 126.097 1127.21 126.642 1127.21 127.211C1127.21 127.779 1126.98 128.324 1126.58 128.726C1126.18 129.129 1125.63 129.354 1125.06 129.354C1124.5 129.354 1123.95 129.129 1123.55 128.726L1122.03 127.211L1120.52 128.726C1118.77 130.469 1116.41 131.447 1113.95 131.447C1111.48 131.447 1109.12 130.469 1107.38 128.726C1106.98 128.324 1106.75 127.779 1106.75 127.211C1106.75 126.642 1106.98 126.097 1107.38 125.695C1107.78 125.293 1108.33 125.067 1108.89 125.067C1109.46 125.067 1110.01 125.293 1110.41 125.695C1111.35 126.628 1112.62 127.152 1113.95 127.152C1115.27 127.152 1116.54 126.628 1117.48 125.695L1123.55 119.631C1124.49 118.693 1125.01 117.421 1125.01 116.094C1125.01 114.768 1124.49 113.495 1123.55 112.557C1122.61 111.619 1121.34 111.092 1120.01 111.092C1118.68 111.092 1117.41 111.619 1116.47 112.557L1110.92 118.115C1109.17 119.858 1106.81 120.836 1104.35 120.836C1101.88 120.836 1099.52 119.858 1097.78 118.115C1096.04 116.373 1095.06 114.011 1095.06 111.547C1095.06 109.083 1096.04 106.72 1097.78 104.978L1098.79 103.968L1097.27 102.452C1096.87 102.05 1096.65 101.504 1096.65 100.936C1096.65 100.367 1096.87 99.822 1097.27 99.4199C1097.68 99.0179 1098.22 98.7921 1098.79 98.7921C1099.36 98.7921 1099.9 99.0179 1100.3 99.4199L1101.82 100.936L1102.33 100.431C1104.07 98.6884 1106.43 97.7097 1108.89 97.7097C1111.36 97.7097 1113.72 98.6884 1115.46 100.431C1115.87 100.833 1116.09 101.378 1116.09 101.946C1116.09 102.515 1115.87 103.06 1115.46 103.462C1115.06 103.864 1114.52 104.09 1113.95 104.09C1113.38 104.09 1112.83 103.864 1112.43 103.462C1111.49 102.529 1110.22 102.005 1108.89 102.005C1107.57 102.005 1106.3 102.529 1105.36 103.462L1100.81 108.01C1099.87 108.948 1099.35 110.22 1099.35 111.547C1099.35 112.873 1099.87 114.146 1100.81 115.084C1101.75 116.022 1103.02 116.549 1104.35 116.549C1105.67 116.549 1106.95 116.022 1107.88 115.084L1113.44 109.526C1115.18 107.784 1117.55 106.805 1120.01 106.805C1122.47 106.805 1124.84 107.784 1126.58 109.526V109.526Z" fill="#F4FCF9" fill-opacity="0.08"/>
</g>
<defs>
<clipPath id="clip0_298_5100">
<rect width="1172" height="148" rx="7" fill="white"/>
</clipPath>
</defs>
</svg>
