<?xml version="1.0" standalone="no"?>
<!DOCTYPE svg PUBLIC "-//W3C//DTD SVG 20010904//EN"
 "http://www.w3.org/TR/2001/REC-SVG-20010904/DTD/svg10.dtd">
<svg version="1.0" xmlns="http://www.w3.org/2000/svg"
 width="700.000000pt" height="700.000000pt" viewBox="0 0 700.000000 700.000000"
 preserveAspectRatio="xMidYMid meet">
<metadata>
Created by potrace 1.14, written by Peter Selinger 2001-2017
</metadata>
<g transform="translate(0.000000,700.000000) scale(0.100000,-0.100000)"
fill="#000000" stroke="none">
<path d="M3417 6884 c-39 -12 -292 -153 -617 -344 -36 -21 -153 -88 -260 -150
-107 -62 -220 -127 -250 -144 -30 -18 -161 -94 -290 -168 -129 -75 -334 -193
-455 -263 -121 -70 -236 -136 -255 -147 -19 -11 -124 -72 -233 -135 -110 -63
-213 -122 -230 -132 -114 -65 -196 -116 -220 -139 -33 -31 -71 -101 -82 -152
-12 -55 -8 -3199 4 -3238 13 -45 54 -112 83 -139 12 -12 79 -54 148 -94 69
-39 226 -130 350 -202 124 -71 241 -139 260 -149 19 -11 40 -24 45 -28 6 -4
35 -21 66 -38 31 -17 155 -88 275 -158 121 -69 298 -171 394 -226 96 -56 187
-109 202 -119 15 -11 30 -19 32 -19 3 0 34 -17 68 -38 35 -21 70 -42 78 -46 8
-4 24 -12 35 -19 11 -7 52 -30 90 -52 39 -22 78 -44 87 -50 10 -5 84 -48 164
-95 81 -47 168 -97 193 -112 25 -15 53 -31 61 -35 8 -4 49 -27 90 -52 109 -64
169 -89 224 -95 95 -8 111 -1 553 255 83 49 167 97 185 108 18 10 103 59 188
108 170 99 381 220 680 393 262 151 673 388 905 523 227 131 234 135 309 177
80 46 141 110 166 177 20 54 20 68 20 1654 0 1554 -1 1600 -19 1649 -35 92
-76 131 -221 212 -58 33 -84 47 -275 158 -140 81 -1009 584 -1090 630 -16 10
-57 33 -90 52 -33 20 -80 47 -105 60 -25 14 -126 73 -225 130 -99 58 -200 116
-225 130 -25 14 -169 97 -320 184 -151 88 -288 165 -304 172 -44 20 -135 22
-189 6z m253 -772 c41 -21 173 -96 293 -165 120 -70 237 -138 260 -151 23 -13
125 -72 227 -131 102 -59 203 -117 225 -129 22 -13 121 -70 220 -128 99 -57
200 -116 225 -130 25 -14 86 -49 135 -78 50 -29 110 -64 135 -78 25 -14 74
-42 109 -64 34 -21 65 -38 68 -38 14 0 181 -107 209 -134 18 -17 44 -56 58
-86 l26 -55 0 -1235 c0 -1397 6 -1301 -78 -1389 -42 -45 -82 -71 -267 -176
-22 -12 -85 -48 -140 -80 -179 -104 -336 -195 -535 -310 -107 -62 -246 -142
-309 -179 -62 -36 -115 -66 -117 -66 -3 0 -23 -12 -45 -26 -23 -14 -62 -37
-87 -51 -26 -15 -59 -33 -74 -42 -62 -36 -324 -188 -357 -206 -20 -11 -68 -40
-108 -63 -40 -23 -93 -51 -118 -62 -54 -23 -141 -26 -196 -6 -20 7 -320 176
-665 376 -346 199 -642 371 -659 380 -16 9 -102 59 -190 110 -88 51 -179 103
-202 116 -23 13 -108 63 -190 110 -81 48 -165 96 -186 107 -78 43 -138 122
-153 202 -4 22 -7 587 -7 1256 0 963 3 1224 13 1255 16 47 49 101 81 131 19
17 186 116 442 262 17 10 73 42 122 71 50 29 108 62 130 75 22 12 139 80 260
150 121 70 324 187 450 260 127 73 343 198 481 277 139 80 269 150 290 155 73
19 142 8 224 -35z"/>
<path d="M3288 4885 c-47 -7 -98 -15 -112 -19 -14 -3 -29 -7 -33 -8 -5 0 -51
-16 -105 -34 -372 -125 -681 -399 -842 -749 -30 -65 -82 -214 -91 -261 -2 -16
-8 -42 -11 -59 -3 -16 -9 -52 -14 -80 -8 -49 -14 -1473 -6 -1464 2 2 7 24 10
49 16 120 86 287 167 396 118 160 278 277 464 341 78 26 217 53 276 53 l39 0
1 258 c0 141 3 271 5 287 9 54 72 170 120 218 245 249 659 156 773 -174 10
-30 19 -57 20 -61 0 -5 1 -125 1 -268 l0 -260 478 2 477 3 -1 240 c-1 261 -5
333 -28 440 -42 195 -111 369 -221 554 -60 102 -202 249 -326 338 -172 124
-401 222 -584 248 -22 3 -47 8 -55 11 -32 12 -319 11 -402 -1z"/>
</g>
</svg>
