<svg width="50" height="57" viewBox="0 0 50 57" fill="none" xmlns="http://www.w3.org/2000/svg">
<g clip-path="url(#clip0_816_10240)">
<path fill-rule="evenodd" clip-rule="evenodd" d="M26.1006 0.484981C25.3303 0.040162 24.3813 0.0401627 23.611 0.484982L1.2443 13.4018C0.47431 13.8465 0 14.6681 0 15.5573V41.392C0 42.2811 0.474311 43.1028 1.2443 43.5475L23.611 56.4643C24.3813 56.9091 25.3303 56.9091 26.1006 56.4643L48.4673 43.5475C49.2373 43.1028 49.7116 42.2811 49.7116 41.392V15.5573C49.7116 14.6681 49.2373 13.8465 48.4673 13.4018L26.1006 0.484981ZM26.2223 6.64079C25.4798 6.21204 24.5651 6.21204 23.8227 6.64078L6.69763 16.5305C5.95547 16.9591 5.4983 17.7511 5.4983 18.6081V38.3886C5.4983 39.2456 5.95547 40.0376 6.69763 40.4662L23.8227 50.3559C24.5651 50.7847 25.4798 50.7847 26.2223 50.3559L43.3473 40.4662C44.0894 40.0376 44.5466 39.2456 44.5466 38.3886V18.6081C44.5466 17.751 44.0894 16.9591 43.3473 16.5305L26.2223 6.64079Z" fill="url(#paint0_linear_816_10240)"/>
<path d="M24.7801 16.8147C25.7839 16.814 26.7835 16.9409 27.7543 17.192C28.7065 17.4375 29.6245 17.7969 30.4877 18.2622C30.9672 18.5225 31.427 18.8166 31.8635 19.1421C31.8859 19.1547 31.8983 19.1641 31.9065 19.167L31.9095 19.17C32.2492 19.4235 32.5753 19.6943 32.8863 19.9813C33.3262 20.3883 33.7333 20.8285 34.1038 21.2977C34.1038 21.2977 36.5677 24.6736 36.5677 28.723L36.5707 29.3875L36.5896 32.2296H28.6266V28.4421C28.6307 27.9433 28.5291 27.4492 28.3282 26.9912C28.1333 26.5397 27.8526 26.1289 27.5011 25.781C27.1463 25.434 26.7262 25.1584 26.2642 24.9697C25.7957 24.7711 25.2901 24.6712 24.7801 24.6766C24.5214 24.6749 24.2633 24.699 24.0096 24.7485C24.0067 24.7501 24.0035 24.7511 24.0002 24.7514C23.7561 24.7986 23.5179 24.8717 23.29 24.9697C22.3601 25.3533 21.6201 26.0802 21.2289 26.9946C21.0278 27.4513 20.9263 27.9444 20.931 28.4421V32.2296C18.8128 32.2302 16.7815 33.0583 15.2837 34.5319C13.7859 36.0055 12.9441 38.004 12.9434 40.0881V28.4421C12.9408 27.3973 13.0837 26.3571 13.3682 25.3504C13.6433 24.38 14.0452 23.4489 14.5638 22.5802C14.7508 22.268 14.9537 21.9656 15.1695 21.672L15.185 21.6475C16.1548 20.3328 17.3911 19.2301 18.8157 18.409C19.7001 17.8994 20.6476 17.504 21.6347 17.2326C22.6589 16.953 23.7172 16.8124 24.7801 16.8147Z" fill="url(#paint1_linear_816_10240)"/>
</g>
<defs>
<linearGradient id="paint0_linear_816_10240" x1="0" y1="0.151367" x2="84.7071" y2="54.6285" gradientUnits="userSpaceOnUse">
<stop stop-color="#3BAE5A"/>
<stop offset="1" stop-color="#1BA16E"/>
</linearGradient>
<linearGradient id="paint1_linear_816_10240" x1="12.9434" y1="16.8147" x2="49.5863" y2="44.0984" gradientUnits="userSpaceOnUse">
<stop stop-color="#3BAE5A"/>
<stop offset="1" stop-color="#1BA16E"/>
</linearGradient>
<clipPath id="clip0_816_10240">
<rect width="49.7817" height="57" fill="white"/>
</clipPath>
</defs>
</svg>
