<svg width="186" height="57" viewBox="0 0 186 57" fill="none" xmlns="http://www.w3.org/2000/svg">
<g clip-path="url(#clip0_816_10240)">
<path fill-rule="evenodd" clip-rule="evenodd" d="M26.1006 0.484981C25.3303 0.040162 24.3813 0.0401627 23.611 0.484982L1.2443 13.4018C0.47431 13.8465 0 14.6681 0 15.5573V41.392C0 42.2811 0.474311 43.1028 1.2443 43.5475L23.611 56.4643C24.3813 56.9091 25.3303 56.9091 26.1006 56.4643L48.4673 43.5475C49.2373 43.1028 49.7116 42.2811 49.7116 41.392V15.5573C49.7116 14.6681 49.2373 13.8465 48.4673 13.4018L26.1006 0.484981ZM26.2223 6.64079C25.4798 6.21204 24.5651 6.21204 23.8227 6.64078L6.69763 16.5305C5.95547 16.9591 5.4983 17.7511 5.4983 18.6081V38.3886C5.4983 39.2456 5.95547 40.0376 6.69763 40.4662L23.8227 50.3559C24.5651 50.7847 25.4798 50.7847 26.2223 50.3559L43.3473 40.4662C44.0894 40.0376 44.5466 39.2456 44.5466 38.3886V18.6081C44.5466 17.751 44.0894 16.9591 43.3473 16.5305L26.2223 6.64079Z" fill="url(#paint0_linear_816_10240)"/>
<path d="M24.7801 16.8147C25.7839 16.814 26.7835 16.9409 27.7543 17.192C28.7065 17.4375 29.6245 17.7969 30.4877 18.2622C30.9672 18.5225 31.427 18.8166 31.8635 19.1421C31.8859 19.1547 31.8983 19.1641 31.9065 19.167L31.9095 19.17C32.2492 19.4235 32.5753 19.6943 32.8863 19.9813C33.3262 20.3883 33.7333 20.8285 34.1038 21.2977C34.1038 21.2977 36.5677 24.6736 36.5677 28.723L36.5707 29.3875L36.5896 32.2296H28.6266V28.4421C28.6307 27.9433 28.5291 27.4492 28.3282 26.9912C28.1333 26.5397 27.8526 26.1289 27.5011 25.781C27.1463 25.434 26.7262 25.1584 26.2642 24.9697C25.7957 24.7711 25.2901 24.6712 24.7801 24.6766C24.5214 24.6749 24.2633 24.699 24.0096 24.7485C24.0067 24.7501 24.0035 24.7511 24.0002 24.7514C23.7561 24.7986 23.5179 24.8717 23.29 24.9697C22.3601 25.3533 21.6201 26.0802 21.2289 26.9946C21.0278 27.4513 20.9263 27.9444 20.931 28.4421V32.2296C18.8128 32.2302 16.7815 33.0583 15.2837 34.5319C13.7859 36.0055 12.9441 38.004 12.9434 40.0881V28.4421C12.9408 27.3973 13.0837 26.3571 13.3682 25.3504C13.6433 24.38 14.0452 23.4489 14.5638 22.5802C14.7508 22.268 14.9537 21.9656 15.1695 21.672L15.185 21.6475C16.1548 20.3328 17.3911 19.2301 18.8157 18.409C19.7001 17.8994 20.6476 17.504 21.6347 17.2326C22.6589 16.953 23.7172 16.8124 24.7801 16.8147Z" fill="url(#paint1_linear_816_10240)"/>
</g>
<path d="M74.0507 34.0797H73.5605L64.8123 24.0683V34.0797H63.1531V20.2786H63.6433L72.4481 30.422V20.2786H74.0507V34.0797ZM98.6972 34.0797H96.9815L94.851 29.4605H89.1571L87.0455 34.0797H85.2543L91.7778 19.7319H92.268L98.6972 34.0797ZM94.1157 27.8202L92.0229 23.1633L89.9113 27.8202H94.1157ZM109.901 20.2786H112.729C114.338 20.2786 115.394 20.3415 115.896 20.4672C116.399 20.5929 116.858 20.8191 117.273 21.1459C117.7 21.4727 118.033 21.8812 118.272 22.3714C118.511 22.8616 118.63 23.4147 118.63 24.0306C118.63 24.6465 118.511 25.1995 118.272 25.6897C118.046 26.1799 117.713 26.5884 117.273 26.9152C116.845 27.2294 116.317 27.4557 115.689 27.594C115.061 27.7196 113.948 27.7825 112.352 27.7825H111.522V34.0797H109.901V20.2786ZM111.522 26.2176H113.672C114.941 26.2428 115.802 26.0417 116.255 25.6143C116.72 25.1869 116.952 24.6527 116.952 24.0117C116.952 22.5788 115.896 21.8624 113.785 21.8624H111.522V26.2176ZM131.918 34.0797H130.297V20.2786H131.918V34.0797ZM158.344 27.33C158.306 29.5673 157.652 31.3082 156.383 32.5525C155.126 33.7969 153.467 34.4191 151.406 34.4191C149.042 34.4191 147.157 33.6963 145.749 32.2509C144.342 30.7928 143.638 29.0897 143.638 27.1415C143.638 25.1932 144.342 23.5089 145.749 22.0886C147.157 20.6557 148.973 19.9393 151.198 19.9393C152.405 19.9393 153.523 20.1655 154.554 20.618C155.597 21.0579 156.615 21.7367 157.608 22.6542L156.364 23.842C155.597 23.1004 154.768 22.5348 153.875 22.1452C152.983 21.743 152.065 21.5419 151.123 21.5419C150.18 21.5419 149.244 21.7932 148.313 22.296C147.383 22.7988 146.654 23.4775 146.126 24.3322C145.599 25.1869 145.335 26.1108 145.335 27.1038C145.335 28.6498 145.913 30.001 147.069 31.1573C148.238 32.3012 149.696 32.8731 151.443 32.8731C152.738 32.8731 153.857 32.5211 154.799 31.8172C155.742 31.1008 156.32 30.1267 156.534 28.8949H152.235V27.33H158.344ZM176.633 19.9393C177.978 19.9393 179.216 20.2598 180.348 20.9008C181.479 21.5293 182.365 22.4028 183.006 23.5215C183.66 24.6402 183.986 25.8594 183.986 27.1792C183.986 28.4864 183.666 29.6993 183.025 30.818C182.384 31.9366 181.504 32.8165 180.385 33.4575C179.267 34.0986 178.047 34.4191 176.728 34.4191C175.42 34.4191 174.201 34.1048 173.07 33.4764C171.939 32.8353 171.053 31.9618 170.412 30.8557C169.771 29.737 169.45 28.5241 169.45 27.2169C169.45 25.8971 169.771 24.6779 170.412 23.5592C171.053 22.428 171.926 21.5419 173.032 20.9008C174.151 20.2598 175.351 19.9393 176.633 19.9393ZM176.69 32.8353C178.261 32.8353 179.587 32.3012 180.668 31.2328C181.762 30.1644 182.308 28.8257 182.308 27.2169C182.308 25.608 181.755 24.2568 180.649 23.1633C179.556 22.0698 178.236 21.523 176.69 21.523C175.106 21.523 173.78 22.076 172.712 23.1821C171.656 24.2757 171.128 25.6143 171.128 27.198C171.128 28.7692 171.675 30.1015 172.768 31.1951C173.862 32.2886 175.169 32.8353 176.69 32.8353Z" fill="white"/>
<defs>
<linearGradient id="paint0_linear_816_10240" x1="0" y1="0.151367" x2="84.7071" y2="54.6285" gradientUnits="userSpaceOnUse">
<stop stop-color="#3BAE5A"/>
<stop offset="1" stop-color="#1BA16E"/>
</linearGradient>
<linearGradient id="paint1_linear_816_10240" x1="12.9434" y1="16.8147" x2="49.5863" y2="44.0984" gradientUnits="userSpaceOnUse">
<stop stop-color="#3BAE5A"/>
<stop offset="1" stop-color="#1BA16E"/>
</linearGradient>
<clipPath id="clip0_816_10240">
<rect width="49.7817" height="57" fill="white"/>
</clipPath>
</defs>
</svg>
