<svg width="122" height="38" viewBox="0 0 122 38" fill="none" xmlns="http://www.w3.org/2000/svg">
<g clip-path="url(#clip0_816_10219)">
<path fill-rule="evenodd" clip-rule="evenodd" d="M17.1539 0.318868C16.6477 0.0265232 16.0239 0.026523 15.5177 0.318868L0.81778 8.80808C0.311727 9.10033 0 9.64032 0 10.2247V27.2039C0 27.7882 0.311727 28.3282 0.81778 28.6205L15.5177 37.1097C16.0239 37.402 16.6477 37.402 17.1539 37.1097L31.8538 28.6205C32.3598 28.3282 32.6716 27.7882 32.6716 27.2039V10.2247C32.6716 9.64032 32.3598 9.10033 31.8538 8.80808L17.1539 0.318868ZM17.2338 4.3646C16.7459 4.08282 16.1447 4.08282 15.6568 4.3646L4.40183 10.8643C3.91407 11.146 3.61361 11.6665 3.61361 12.2298V25.23C3.61361 25.7932 3.91407 26.3137 4.40183 26.5954L15.6568 33.0951C16.1447 33.3769 16.7459 33.3769 17.2338 33.0951L28.4888 26.5954C28.9766 26.3137 29.277 25.7932 29.277 25.23V12.2298C29.277 11.6665 28.9766 11.146 28.4888 10.8643L17.2338 4.3646Z" fill="url(#paint0_linear_816_10219)"/>
<path d="M16.2862 11.051C16.9459 11.0506 17.6029 11.1339 18.2409 11.299C18.8667 11.4603 19.47 11.6965 20.0374 12.0024C20.3525 12.1735 20.6547 12.3667 20.9416 12.5806C20.9563 12.589 20.9645 12.5951 20.9698 12.597L20.9718 12.599C21.1951 12.7656 21.4094 12.9436 21.6138 13.1322C21.9029 13.3997 22.1704 13.689 22.414 13.9973C22.414 13.9973 24.0333 16.2161 24.0333 18.8774L24.0353 19.3141L24.0477 21.1821H18.8142V18.6928C18.8169 18.365 18.7501 18.0403 18.6181 17.7393C18.49 17.4425 18.3055 17.1725 18.0745 16.9439C17.8413 16.7158 17.5652 16.5347 17.2616 16.4107C16.9537 16.2801 16.6214 16.2145 16.2862 16.218C16.1162 16.2169 15.9466 16.2328 15.7798 16.2653C15.7779 16.2664 15.7758 16.267 15.7736 16.2672C15.6132 16.2982 15.4567 16.3463 15.3068 16.4107C14.6957 16.6628 14.2094 17.1405 13.9523 17.7415C13.8201 18.0416 13.7534 18.3657 13.7565 18.6928V21.1821C12.3643 21.1824 11.0293 21.7267 10.0449 22.6952C9.06054 23.6637 8.50731 24.9771 8.50686 26.3468V18.6928C8.50513 18.0061 8.59906 17.3225 8.78602 16.6609C8.96686 16.0231 9.23099 15.4111 9.57181 14.8402C9.69472 14.6351 9.82809 14.4363 9.96993 14.2434L9.9801 14.2272C10.6175 13.3632 11.43 12.6385 12.3663 12.0988C12.9475 11.7639 13.5702 11.5041 14.219 11.3257C14.8921 11.1419 15.5876 11.0495 16.2862 11.051Z" fill="url(#paint1_linear_816_10219)"/>
</g>
<path d="M48.6678 22.5681H48.3456L42.5961 15.9883V22.5681H41.5056V13.4977H41.8278L47.6145 20.1642V13.4977H48.6678V22.5681ZM64.866 22.5681H63.7384L62.3382 19.5322H58.596L57.2082 22.5681H56.031L60.3184 13.1383H60.6406L64.866 22.5681ZM61.8549 18.4542L60.4795 15.3935L59.0917 18.4542H61.8549ZM72.2293 13.4977H74.0879C75.1453 13.4977 75.8392 13.539 76.1697 13.6216C76.5001 13.7042 76.8016 13.8529 77.0742 14.0677C77.3551 14.2825 77.574 14.5509 77.731 14.8731C77.8879 15.1953 77.9664 15.5588 77.9664 15.9635C77.9664 16.3683 77.8879 16.7318 77.731 17.054C77.5823 17.3761 77.3634 17.6446 77.0742 17.8594C76.7934 18.0659 76.4464 18.2146 76.0334 18.3055C75.6203 18.3881 74.8892 18.4294 73.8401 18.4294H73.2949V22.5681H72.2293V13.4977ZM73.2949 17.4009H74.7075C75.5418 17.4174 76.1077 17.2853 76.4051 17.0044C76.7107 16.7235 76.8636 16.3724 76.8636 15.9511C76.8636 15.0094 76.1697 14.5385 74.7819 14.5385H73.2949V17.4009ZM86.6997 22.5681H85.634V13.4977H86.6997V22.5681ZM104.067 18.132C104.042 19.6024 103.613 20.7465 102.778 21.5644C101.952 22.3822 100.862 22.7911 99.5071 22.7911C97.954 22.7911 96.7149 22.3161 95.7897 21.3661C94.8645 20.4078 94.4019 19.2885 94.4019 18.0081C94.4019 16.7277 94.8645 15.6207 95.7897 14.6872C96.7149 13.7455 97.9086 13.2746 99.3708 13.2746C100.164 13.2746 100.899 13.4233 101.576 13.7207C102.262 14.0099 102.931 14.4559 103.584 15.059L102.766 15.8396C102.262 15.3522 101.717 14.9805 101.13 14.7244C100.544 14.4601 99.9408 14.3279 99.3212 14.3279C98.7016 14.3279 98.0862 14.4931 97.4749 14.8235C96.8636 15.154 96.3845 15.6001 96.0375 16.1618C95.6906 16.7235 95.5171 17.3307 95.5171 17.9833C95.5171 18.9994 95.8971 19.8874 96.6571 20.6474C97.4253 21.3991 98.3836 21.775 99.5318 21.775C100.383 21.775 101.118 21.5437 101.737 21.0811C102.357 20.6102 102.737 19.97 102.877 19.1605H100.052V18.132H104.067ZM116.087 13.2746C116.971 13.2746 117.785 13.4853 118.528 13.9066C119.272 14.3196 119.854 14.8938 120.276 15.629C120.705 16.3642 120.92 17.1655 120.92 18.0329C120.92 18.892 120.709 19.6892 120.288 20.4244C119.867 21.1596 119.288 21.7378 118.553 22.1591C117.818 22.5804 117.017 22.7911 116.149 22.7911C115.29 22.7911 114.489 22.5846 113.745 22.1715C113.002 21.7502 112.42 21.1761 111.998 20.4492C111.577 19.7139 111.366 18.9168 111.366 18.0576C111.366 17.1903 111.577 16.389 111.998 15.6538C112.42 14.9103 112.994 14.3279 113.721 13.9066C114.456 13.4853 115.245 13.2746 116.087 13.2746ZM116.125 21.7502C117.157 21.7502 118.029 21.3991 118.739 20.697C119.458 19.9948 119.817 19.115 119.817 18.0576C119.817 17.0003 119.454 16.1122 118.727 15.3935C118.008 14.6748 117.141 14.3155 116.125 14.3155C115.084 14.3155 114.212 14.679 113.51 15.4059C112.816 16.1246 112.469 17.0044 112.469 18.0453C112.469 19.0779 112.828 19.9535 113.547 20.6722C114.266 21.3909 115.125 21.7502 116.125 21.7502Z" fill="white"/>
<defs>
<linearGradient id="paint0_linear_816_10219" x1="0" y1="0.0996094" x2="55.6714" y2="35.9032" gradientUnits="userSpaceOnUse">
<stop stop-color="#3BAE5A"/>
<stop offset="1" stop-color="#1BA16E"/>
</linearGradient>
<linearGradient id="paint1_linear_816_10219" x1="8.50684" y1="11.051" x2="32.5894" y2="28.9825" gradientUnits="userSpaceOnUse">
<stop stop-color="#3BAE5A"/>
<stop offset="1" stop-color="#1BA16E"/>
</linearGradient>
<clipPath id="clip0_816_10219">
<rect width="32.7176" height="37.4617" fill="white"/>
</clipPath>
</defs>
</svg>
