<svg width="33" height="38" viewBox="0 0 33 38" fill="none" xmlns="http://www.w3.org/2000/svg">
<g clip-path="url(#clip0_816_10219)">
<path fill-rule="evenodd" clip-rule="evenodd" d="M17.1539 0.318868C16.6477 0.0265232 16.0239 0.026523 15.5177 0.318868L0.81778 8.80808C0.311727 9.10033 0 9.64032 0 10.2247V27.2039C0 27.7882 0.311727 28.3282 0.81778 28.6205L15.5177 37.1097C16.0239 37.402 16.6477 37.402 17.1539 37.1097L31.8538 28.6205C32.3598 28.3282 32.6716 27.7882 32.6716 27.2039V10.2247C32.6716 9.64032 32.3598 9.10033 31.8538 8.80808L17.1539 0.318868ZM17.2338 4.3646C16.7459 4.08282 16.1447 4.08282 15.6568 4.3646L4.40183 10.8643C3.91407 11.146 3.61361 11.6665 3.61361 12.2298V25.23C3.61361 25.7932 3.91407 26.3137 4.40183 26.5954L15.6568 33.0951C16.1447 33.3769 16.7459 33.3769 17.2338 33.0951L28.4888 26.5954C28.9766 26.3137 29.277 25.7932 29.277 25.23V12.2298C29.277 11.6665 28.9766 11.146 28.4888 10.8643L17.2338 4.3646Z" fill="url(#paint0_linear_816_10219)"/>
<path d="M16.2862 11.051C16.9459 11.0506 17.6029 11.1339 18.2409 11.299C18.8667 11.4603 19.47 11.6965 20.0374 12.0024C20.3525 12.1735 20.6547 12.3667 20.9416 12.5806C20.9563 12.589 20.9645 12.5951 20.9698 12.597L20.9718 12.599C21.1951 12.7656 21.4094 12.9436 21.6138 13.1322C21.9029 13.3997 22.1704 13.689 22.414 13.9973C22.414 13.9973 24.0333 16.2161 24.0333 18.8774L24.0353 19.3141L24.0477 21.1821H18.8142V18.6928C18.8169 18.365 18.7501 18.0403 18.6181 17.7393C18.49 17.4425 18.3055 17.1725 18.0745 16.9439C17.8413 16.7158 17.5652 16.5347 17.2616 16.4107C16.9537 16.2801 16.6214 16.2145 16.2862 16.218C16.1162 16.2169 15.9466 16.2328 15.7798 16.2653C15.7779 16.2664 15.7758 16.267 15.7736 16.2672C15.6132 16.2982 15.4567 16.3463 15.3068 16.4107C14.6957 16.6628 14.2094 17.1405 13.9523 17.7415C13.8201 18.0416 13.7534 18.3657 13.7565 18.6928V21.1821C12.3643 21.1824 11.0293 21.7267 10.0449 22.6952C9.06054 23.6637 8.50731 24.9771 8.50686 26.3468V18.6928C8.50513 18.0061 8.59906 17.3225 8.78602 16.6609C8.96686 16.0231 9.23099 15.4111 9.57181 14.8402C9.69472 14.6351 9.82809 14.4363 9.96993 14.2434L9.9801 14.2272C10.6175 13.3632 11.43 12.6385 12.3663 12.0988C12.9475 11.7639 13.5702 11.5041 14.219 11.3257C14.8921 11.1419 15.5876 11.0495 16.2862 11.051Z" fill="url(#paint1_linear_816_10219)"/>
</g>
<defs>
<linearGradient id="paint0_linear_816_10219" x1="0" y1="0.0996094" x2="55.6714" y2="35.9032" gradientUnits="userSpaceOnUse">
<stop stop-color="#3BAE5A"/>
<stop offset="1" stop-color="#1BA16E"/>
</linearGradient>
<linearGradient id="paint1_linear_816_10219" x1="8.50684" y1="11.051" x2="32.5894" y2="28.9825" gradientUnits="userSpaceOnUse">
<stop stop-color="#3BAE5A"/>
<stop offset="1" stop-color="#1BA16E"/>
</linearGradient>
<clipPath id="clip0_816_10219">
<rect width="32.7176" height="37.4617" fill="white"/>
</clipPath>
</defs>
</svg>
