<svg width="153" height="47" viewBox="0 0 153 47" fill="none" xmlns="http://www.w3.org/2000/svg">
<path fill-rule="evenodd" clip-rule="evenodd" d="M21.5215 0.400086C20.8864 0.0333049 20.1039 0.0333046 19.4687 0.400086L1.026 11.0508C0.391098 11.4174 0 12.0949 0 12.8281V34.1304C0 34.8636 0.391097 35.5411 1.026 35.9077L19.4687 46.5584C20.1039 46.9252 20.8864 46.9252 21.5215 46.5584L39.9643 35.9077C40.5992 35.5411 40.9903 34.8636 40.9903 34.1304V12.8281C40.9903 12.0949 40.5992 11.4174 39.9643 11.0508L21.5215 0.400086ZM21.6219 5.47592C21.0097 5.1224 20.2554 5.1224 19.6432 5.47593L5.52261 13.6306C4.91065 13.984 4.53369 14.637 4.53369 15.3437V31.654C4.53369 32.3606 4.91065 33.0136 5.52261 33.367L19.6432 41.5217C20.2554 41.8753 21.0097 41.8752 21.6219 41.5217L35.7425 33.367C36.3544 33.0136 36.7314 32.3606 36.7314 31.654V15.3437C36.7314 14.637 36.3544 13.984 35.7425 13.6306L21.6219 5.47592Z" fill="url(#paint0_linear_816_10230)"/>
<path d="M20.4329 13.8648C21.2606 13.8642 22.0849 13.9688 22.8854 14.1759C23.6705 14.3783 24.4275 14.6746 25.1393 15.0583C25.5346 15.273 25.9138 15.5154 26.2737 15.7838C26.2921 15.7943 26.3024 15.8019 26.3091 15.8044L26.3116 15.8068C26.5917 16.0158 26.8606 16.2391 27.117 16.4758C27.4798 16.8114 27.8154 17.1743 28.121 17.5612C28.121 17.5612 30.1526 20.3449 30.1526 23.6838L30.1551 24.2318L30.1707 26.5753H23.6046V23.4523C23.608 23.041 23.5242 22.6335 23.3586 22.2559C23.1979 21.8836 22.9664 21.5449 22.6766 21.258C22.384 20.9719 22.0376 20.7447 21.6567 20.589C21.2704 20.4253 20.8535 20.3429 20.4329 20.3473C20.2197 20.3459 20.0068 20.3658 19.7977 20.4066C19.7953 20.408 19.7926 20.4088 19.7899 20.4091C19.5886 20.4479 19.3922 20.5083 19.2043 20.589C18.4375 20.9053 17.8273 21.5048 17.5048 22.2587C17.339 22.6353 17.2553 23.0419 17.2591 23.4523V26.5753C15.5125 26.5757 13.8376 27.2586 12.6026 28.4737C11.3675 29.6888 10.6734 31.3366 10.6729 33.0551V23.4523C10.6707 22.5907 10.7886 21.733 11.0231 20.903C11.25 20.1028 11.5814 19.335 12.009 18.6187C12.1632 18.3613 12.3305 18.112 12.5085 17.8699L12.5212 17.8497C13.3209 16.7656 14.3402 15.8564 15.515 15.1794C16.2442 14.7591 17.0255 14.4331 17.8394 14.2094C18.6839 13.9788 19.5565 13.8628 20.4329 13.8648Z" fill="url(#paint1_linear_816_10230)"/>
<path d="M61.0594 28.2589H60.6552L53.4418 20.0038V28.2589H52.0737V16.8791H52.4779L59.738 25.2429V16.8791H61.0594V28.2589ZM81.3819 28.2589H79.9672L78.2105 24.4501H73.5156L71.7744 28.2589H70.2975L75.6765 16.4282H76.0807L81.3819 28.2589ZM77.6042 23.0975L75.8786 19.2576L74.1374 23.0975H77.6042ZM90.62 16.8791H92.952C94.2786 16.8791 95.1492 16.9309 95.5637 17.0345C95.9783 17.1382 96.3566 17.3247 96.6986 17.5942C97.051 17.8636 97.3256 18.2005 97.5226 18.6047C97.7195 19.0089 97.8179 19.4649 97.8179 19.9727C97.8179 20.4806 97.7195 20.9366 97.5226 21.3408C97.336 21.745 97.0613 22.0819 96.6986 22.3513C96.3462 22.6104 95.9109 22.797 95.3927 22.911C94.8745 23.0146 93.9573 23.0664 92.641 23.0664H91.957V28.2589H90.62V16.8791ZM91.957 21.7761H93.7293C94.7761 21.7968 95.486 21.631 95.8591 21.2786C96.2426 20.9262 96.4343 20.4858 96.4343 19.9572C96.4343 18.7757 95.5637 18.1849 93.8226 18.1849H91.957V21.7761ZM108.775 28.2589H107.438V16.8791H108.775V28.2589ZM130.564 22.6933C130.533 24.5382 129.994 25.9736 128.947 26.9996C127.911 28.0257 126.543 28.5387 124.843 28.5387C122.895 28.5387 121.34 27.9428 120.179 26.7509C119.019 25.5487 118.438 24.1443 118.438 22.5379C118.438 20.9314 119.019 19.5426 120.179 18.3715C121.34 17.19 122.838 16.5992 124.672 16.5992C125.667 16.5992 126.59 16.7858 127.439 17.1589C128.3 17.5216 129.139 18.0813 129.958 18.8379L128.932 19.8173C128.3 19.2058 127.616 18.7394 126.88 18.4181C126.144 18.0865 125.387 17.9206 124.61 17.9206C123.833 17.9206 123.061 18.1279 122.294 18.5425C121.527 18.9571 120.926 19.5167 120.49 20.2215C120.055 20.9262 119.837 21.688 119.837 22.5068C119.837 23.7816 120.314 24.8957 121.268 25.8492C122.231 26.7924 123.434 27.2639 124.874 27.2639C125.942 27.2639 126.864 26.9737 127.642 26.3933C128.419 25.8026 128.896 24.9994 129.072 23.9837H125.527V22.6933H130.564ZM145.645 16.5992C146.754 16.5992 147.775 16.8635 148.708 17.3921C149.64 17.9103 150.371 18.6306 150.9 19.553C151.439 20.4754 151.708 21.4807 151.708 22.569C151.708 23.6468 151.444 24.647 150.915 25.5694C150.387 26.4918 149.661 27.2173 148.739 27.7459C147.816 28.2744 146.811 28.5387 145.723 28.5387C144.645 28.5387 143.64 28.2796 142.707 27.7614C141.774 27.2328 141.043 26.5125 140.515 25.6005C139.986 24.6781 139.722 23.6779 139.722 22.6001C139.722 21.5118 139.986 20.5065 140.515 19.5841C141.043 18.6513 141.764 17.9206 142.676 17.3921C143.598 16.8635 144.588 16.5992 145.645 16.5992ZM145.692 27.2328C146.987 27.2328 148.081 26.7924 148.972 25.9114C149.874 25.0304 150.325 23.9267 150.325 22.6001C150.325 21.2734 149.869 20.1593 148.956 19.2576C148.055 18.3559 146.967 17.9051 145.692 17.9051C144.386 17.9051 143.292 18.3611 142.412 19.2732C141.541 20.1748 141.106 21.2786 141.106 22.5845C141.106 23.88 141.556 24.9786 142.458 25.8803C143.36 26.782 144.438 27.2328 145.692 27.2328Z" fill="white"/>
<defs>
<linearGradient id="paint0_linear_816_10230" x1="0" y1="0.125" x2="69.8462" y2="45.0447" gradientUnits="userSpaceOnUse">
<stop stop-color="#3BAE5A"/>
<stop offset="1" stop-color="#1BA16E"/>
</linearGradient>
<linearGradient id="paint1_linear_816_10230" x1="10.6729" y1="13.8647" x2="40.8872" y2="36.3618" gradientUnits="userSpaceOnUse">
<stop stop-color="#3BAE5A"/>
<stop offset="1" stop-color="#1BA16E"/>
</linearGradient>
</defs>
</svg>
